# xmcd
#
# Track frame offsets:
#	150
#	31556
#	87546
#	123074
#	155546
#	173991
#	207035
#	236136
#
# Disc length: 3520 seconds
# Revision: 0
# Processed by: cddbd v1.5.2PL0 Copyright (c) Steve Scherf et al.
# Submitted via: dBpowerAMP V12.0
#
DISCID=5c0dbe08
DTITLE=Grarup Allstars - That's what love can do - Live
DYEAR=2017
DGENRE=Blues/Soul
TTITLE0=That's what love will make you do
TTITLE1=Freedom is just beyond the door
TTITLE2=Since i fell for you
TTITLE3=Down in Mississippi
TTITLE4=Time's gettin' tougher than tough
TTITLE5=Summertime
TTITLE6=Moanin'
TTITLE7=Tomorrow night
EXTD=
EXTT0=
EXTT1=
EXTT2=
EXTT3=
EXTT4=
EXTT5=
EXTT6=
EXTT7=
PLAYORDER=
